<svg enable-background="new -118 -16 619 141" viewBox="-118 -16 619 141" xmlns="http://www.w3.org/2000/svg"><path d="m-41.8 966.8h549.1v106.6h-549.1z" fill="none"/><path d="m-103.8-3.8h590.5v116.1h-590.5z" fill="none" stroke="#fff" stroke-miterlimit="10" stroke-width="10"/><path d="m327.5-3.1v116.1" fill="#fff" stroke="#fff" stroke-miterlimit="10" stroke-width="10"/><g fill="#92a5af"><path d="m386.1 94.4 20.7-82 21 82z" opacity=".49"/><path d="m427.8 94.3 18.7-50.2 19 50.2z" opacity=".49"/><path d="m407 94.4 20.7-76.9 21 76.9z" opacity=".49"/><path d="m366.7 94.4 20.7-76.9 21 76.9z" opacity=".49"/><path d="m347.8 94.3 18.8-50.2 18.9 50.2z" opacity=".49"/></g><g fill="#fff"><path d="m-39.6 64.5c0 2.4-.2 4.8-.6 7-.4 2.3-1.2 4.3-2.4 6-1.2 1.8-2.9 3.2-5.1 4.2-2.2 1.1-5.1 1.6-8.6 1.6-4.1 0-7.6-1-10.5-3s-4.7-5.1-5.6-9.2l10.6-2.6c.1 1.3.7 2.4 1.7 3.3s2.2 1.3 3.4 1.3c1.3 0 2.4-.3 3.1-1s1.3-1.5 1.6-2.5.6-2.1.6-3.2c.1-1.2.1-2.2.1-3.2v-33.6h11.5v34.9z"/><path d="m-16.6 29.6h35.6v10.7h-24v9.7h22.7v10.7h-22.7v10.7h25.4v10.6h-36.9v-52.4z"/><path d="m89.7 78.3c-3.4 1.8-7 3.1-10.7 3.8s-7.5 1.2-11.3 1.2c-4.1 0-7.9-.6-11.3-1.9-3.5-1.3-6.4-3.1-9-5.5-2.5-2.4-4.5-5.3-5.9-8.7s-2.1-7.2-2.1-11.4.7-8 2.1-11.4 3.4-6.3 5.9-8.7 5.5-4.2 9-5.5 7.2-1.9 11.3-1.9c4.2 0 8.1.5 11.6 1.5s6.6 2.8 9.3 5.2l-8.1 8.9c-1.6-1.6-3.4-2.9-5.3-3.7-2-.8-4.4-1.3-7.4-1.3-2.5 0-4.7.4-6.7 1.3-2 .8-3.7 2-5.1 3.5s-2.5 3.3-3.3 5.4-1.1 4.3-1.1 6.7c0 2.5.4 4.7 1.1 6.8.8 2 1.9 3.8 3.3 5.3s3.1 2.7 5.1 3.5 4.2 1.3 6.7 1.3 4.7-.3 6.5-.9 3.3-1.1 4.4-1.7v-8.5h-9.4v-10.7h20.5v27.4z"/><path d="m159.9 78.3c-3.4 1.8-7 3.1-10.7 3.8s-7.5 1.2-11.3 1.2c-4.1 0-7.9-.6-11.3-1.9-3.5-1.3-6.4-3.1-9-5.5-2.5-2.4-4.5-5.3-5.9-8.7s-2.1-7.2-2.1-11.4.7-8 2.1-11.4 3.4-6.3 5.9-8.7 5.5-4.2 9-5.5 7.2-1.9 11.3-1.9c4.2 0 8.1.5 11.6 1.5s6.6 2.8 9.3 5.2l-8.1 8.9c-1.6-1.6-3.4-2.9-5.3-3.7-2-.8-4.4-1.3-7.4-1.3-2.5 0-4.7.4-6.7 1.3-2 .8-3.7 2-5.1 3.5s-2.5 3.3-3.3 5.4-1.1 4.3-1.1 6.7c0 2.5.4 4.7 1.1 6.8.8 2 1.9 3.8 3.3 5.3s3.1 2.7 5.1 3.5 4.2 1.3 6.7 1.3 4.7-.3 6.5-.9 3.3-1.1 4.4-1.7v-8.5h-9.4v-10.7h20.5v27.4z"/><path d="m183.2 29.6h35.6v10.7h-24.1v9.7h22.7v10.7h-22.7v10.7h25.4v10.6h-36.9z"/><path d="m242 29.6h17.3c4.2 0 8.2.5 12 1.4s7.1 2.5 9.9 4.6 5 4.8 6.7 8.2 2.5 7.4 2.5 12.2c0 4.2-.8 8-2.4 11.2s-3.8 5.9-6.5 8.1-5.8 3.9-9.4 5-7.3 1.7-11.2 1.7h-18.9zm11.5 41.7h6c2.7 0 5.1-.3 7.4-.8s4.3-1.4 6-2.7 3-2.9 4-5c1-2 1.4-4.6 1.4-7.5 0-2.6-.5-4.8-1.4-6.7-1-1.9-2.3-3.5-3.9-4.7s-3.5-2.2-5.7-2.8-4.5-.9-6.9-.9h-6.8v31.1z"/></g></svg>